<svg width="18" height="18" viewBox="0 0 18 18" fill="none" xmlns="http://www.w3.org/2000/svg">
<g clip-path="url(#clip0)">
<path d="M1.12497 1.22472C-0.289534 2.69397 -3.36543e-05 4.25472 -3.36543e-05 8.99623C-3.36543e-05 12.9337 -0.687034 16.881 2.90847 17.8102C4.03122 18.099 13.9792 18.099 15.1005 17.8087C16.5975 17.4225 17.8155 16.2082 17.982 14.091C18.0052 13.7955 18.0052 4.20222 17.9812 3.90072C17.8042 1.64547 16.416 0.345724 14.5867 0.0824738C14.1675 0.0217238 14.0835 0.00372377 11.9325 -2.62316e-05C4.30272 0.00372377 2.63022 -0.336026 1.12497 1.22472Z" fill="url(#paint0_linear)"/>
<path d="M8.99854 2.35431C6.27529 2.35431 3.68929 2.11206 2.70154 4.64706C2.29354 5.69406 2.35279 7.05381 2.35279 9.00081C2.35279 10.7093 2.29804 12.3151 2.70154 13.3538C3.68704 15.8903 6.29404 15.6473 8.99704 15.6473C11.6048 15.6473 14.2935 15.9188 15.2933 13.3538C15.702 12.2963 15.642 10.9568 15.642 9.00081C15.642 6.40431 15.7853 4.72806 14.526 3.46956C13.251 2.19456 11.5268 2.35431 8.99554 2.35431H8.99854ZM8.40304 3.55206C14.0835 3.54306 14.8065 2.91157 14.4075 11.6843C14.2658 14.7871 11.9033 14.4466 8.99929 14.4466C3.70429 14.4466 3.55204 14.2951 3.55204 8.99781C3.55204 3.63906 3.97204 3.55506 8.40304 3.55056V3.55206ZM12.546 4.65531C12.1058 4.65531 11.7488 5.01231 11.7488 5.45256C11.7488 5.89281 12.1058 6.24981 12.546 6.24981C12.9863 6.24981 13.3433 5.89281 13.3433 5.45256C13.3433 5.01231 12.9863 4.65531 12.546 4.65531ZM8.99854 5.58756C7.11379 5.58756 5.58604 7.11606 5.58604 9.00081C5.58604 10.8856 7.11379 12.4133 8.99854 12.4133C10.8833 12.4133 12.4103 10.8856 12.4103 9.00081C12.4103 7.11606 10.8833 5.58756 8.99854 5.58756ZM8.99854 6.78531C11.9273 6.78531 11.931 11.2163 8.99854 11.2163C6.07054 11.2163 6.06604 6.78531 8.99854 6.78531Z" fill="white"/>
</g>
<defs>
<linearGradient id="paint0_linear" x1="1.15948" y1="16.8503" x2="17.8886" y2="2.37146" gradientUnits="userSpaceOnUse">
<stop stop-color="#FFDD55"/>
<stop offset="0.5" stop-color="#FF543E"/>
<stop offset="1" stop-color="#C837AB"/>
</linearGradient>
<clipPath id="clip0">
<rect width="18" height="18" fill="white"/>
</clipPath>
</defs>
</svg>

