<svg width="18" height="18" viewBox="0 0 18 18" fill="none" xmlns="http://www.w3.org/2000/svg">
<path d="M16.3718 0H1.62825C0.729 0 0 0.729 0 1.62825V16.3717C0 17.271 0.729 18 1.62825 18H16.3717C17.271 18 18 17.271 18 16.3717V1.62825C18 0.729 17.271 0 16.3718 0ZM5.56996 15.5424C5.56996 15.8041 5.35783 16.0162 5.09612 16.0162H3.07908C2.81738 16.0162 2.60524 15.8041 2.60524 15.5424V7.08705C2.60524 6.82535 2.81738 6.61321 3.07908 6.61321H5.09612C5.35783 6.61321 5.56996 6.82535 5.56996 7.08705V15.5424ZM4.0876 5.81617C3.02932 5.81617 2.1714 4.95825 2.1714 3.89997C2.1714 2.84169 3.02932 1.98377 4.0876 1.98377C5.14588 1.98377 6.0038 2.84169 6.0038 3.89997C6.0038 4.95825 5.14593 5.81617 4.0876 5.81617ZM16.1109 15.5806C16.1109 15.8212 15.9159 16.0162 15.6753 16.0162H13.5108C13.2702 16.0162 13.0752 15.8212 13.0752 15.5806V11.6145C13.0752 11.0229 13.2487 9.02191 11.529 9.02191C10.1951 9.02191 9.9245 10.3915 9.87017 11.0062V15.5806C9.87017 15.8212 9.67514 16.0162 9.4345 16.0162H7.34113C7.10053 16.0162 6.90545 15.8212 6.90545 15.5806V7.04888C6.90545 6.80829 7.10053 6.61321 7.34113 6.61321H9.4345C9.67509 6.61321 9.87017 6.80829 9.87017 7.04888V7.78655C10.3648 7.04427 11.0999 6.47133 12.665 6.47133C16.1308 6.47133 16.1109 9.70926 16.1109 11.4883V15.5806Z" fill="#0077B7"/>
</svg>

