<svg width="24" height="24" viewBox="0 0 24 24" fill="none" xmlns="http://www.w3.org/2000/svg">
<path d="M20.7825 3.21757C20.6813 3.11683 20.5534 3.04707 20.4139 3.01652C20.2744 2.98596 20.1291 2.99586 19.995 3.04507L3.495 9.04507C3.3527 9.09905 3.23019 9.19503 3.14374 9.32029C3.05729 9.44554 3.01099 9.59413 3.01099 9.74632C3.01099 9.89851 3.05729 10.0471 3.14374 10.1724C3.23019 10.2976 3.3527 10.3936 3.495 10.4476L9.9375 13.0201L14.6925 8.25007L15.75 9.30757L10.9725 14.0851L13.5525 20.5276C13.6081 20.6671 13.7043 20.7868 13.8286 20.871C13.953 20.9553 14.0998 21.0002 14.25 21.0001C14.4016 20.997 14.5486 20.948 14.6718 20.8596C14.795 20.7713 14.8885 20.6476 14.94 20.5051L20.94 4.00507C20.9911 3.87238 21.0034 3.72789 20.9755 3.58846C20.9477 3.44903 20.8807 3.3204 20.7825 3.21757Z" fill="white"/>
</svg>
