<svg width="18" height="18" viewBox="0 0 18 18" fill="none" xmlns="http://www.w3.org/2000/svg">
<path d="M18 0H0V18H18V0Z" fill="#50ABF1"/>
<path d="M2.38466 13.343C3.58261 14.1027 5.00363 14.5424 6.52691 14.5424C10.8064 14.5424 14.2754 11.0729 14.2754 6.79388C14.2754 6.68704 14.2732 6.58099 14.2691 6.47526C14.4239 6.35345 15.3812 5.58614 15.6158 5.09286C15.6158 5.09286 14.8384 5.41595 14.0775 5.49206C14.076 5.49206 14.0742 5.49242 14.0727 5.49242C14.0727 5.49242 14.0742 5.49167 14.0768 5.48981C14.1469 5.44297 15.1271 4.77574 15.2598 3.98075C15.2598 3.98075 14.7099 4.27425 13.94 4.53102C13.8125 4.57336 13.6791 4.61499 13.5415 4.65358C13.0453 4.12392 12.3398 3.79333 11.5568 3.79333C10.0549 3.79333 8.8378 5.01004 8.8378 6.51085C8.8378 6.72263 8.86217 6.92876 8.90826 7.12668C8.69837 7.11807 5.50216 6.93887 3.32777 4.30569C3.32777 4.30569 2.02824 6.07978 4.10219 7.90406C4.10219 7.90406 3.47174 7.87894 2.92782 7.55396C2.92782 7.55396 2.72805 9.70323 5.07674 10.2528C5.07674 10.2528 4.61458 10.4278 3.87729 10.303C3.87729 10.303 4.2896 12.0396 6.37631 12.2019C6.37631 12.2019 4.72624 13.6925 2.38391 13.3428L2.38466 13.343Z" fill="white"/>
</svg>
